<svg width="200" height="184" viewBox="0 0 200 184" fill="none" xmlns="http://www.w3.org/2000/svg">
<path d="M53.4483 0C72.7472 0.00169517 90.5459 10.4863 100 27.4261C109.454 10.4863 127.253 0.00169517 146.552 0C176.069 0 200 27.5651 200 57.283C200 131.925 100 184 100 184C100 184 3.33786e-06 131.925 3.33786e-06 57.283C3.33786e-06 27.5651 23.9308 0 53.4483 0Z" fill="#FF6243"/>
<path d="M186.581 57.283C186.581 29.7875 166.64 4.18368 140.915 0.500086C143.263 0.166139 145.63 -0.00168245 148 1.27142e-05C176.718 1.27142e-05 200 27.5651 200 57.283C200 131.925 102.71 184 102.71 184C102.71 184 100.194 182.649 96 180.098C117.98 166.721 186.581 119.969 186.581 57.283Z" fill="#FF5023"/>
</svg>
