<svg width="50" height="46" viewBox="0 0 50 46" fill="none" xmlns="http://www.w3.org/2000/svg">
<path d="M13.3621 0C18.1868 0.000423791 22.6365 2.62157 25 6.85652C27.3635 2.62157 31.8132 0.000423791 36.6379 0C44.0173 0 50 6.89127 50 14.3208C50 32.9811 25 46 25 46C25 46 8.34465e-07 32.9811 8.34465e-07 14.3208C8.34465e-07 6.89127 5.98271 0 13.3621 0Z" fill="#FF6243"/>
<path d="M46.6452 14.3208C46.6452 7.44686 41.66 1.04592 35.2288 0.125022C35.8157 0.0415347 36.4074 -0.000420613 37 3.17854e-06C44.1794 3.17854e-06 50 6.89127 50 14.3208C50 32.9811 25.6774 46 25.6774 46C25.6774 46 25.0484 45.6622 24 45.0244C29.495 41.6803 46.6452 29.9921 46.6452 14.3208Z" fill="#FF5023"/>
</svg>
