<svg width="300" height="80" viewBox="0 0 300 80" fill="none" xmlns="http://www.w3.org/2000/svg">
<rect width="300" height="80" fill="white"/>
<path d="M51.012 27.8C54.18 27.8 56.664 28.556 58.464 30.068C60.264 31.556 61.164 33.632 61.164 36.296C61.164 38.936 60.264 41.012 58.464 42.524C56.664 44.012 54.18 44.756 51.012 44.756H43.812V53H41.976V27.8H51.012ZM51.012 43.1C53.7 43.1 55.752 42.512 57.168 41.336C58.584 40.16 59.292 38.48 59.292 36.296C59.292 34.112 58.584 32.432 57.168 31.256C55.752 30.056 53.7 29.456 51.012 29.456H43.812V43.1H51.012ZM82.5533 44.036H66.3893C66.4373 45.5 66.8093 46.808 67.5053 47.96C68.2013 49.088 69.1373 49.964 70.3133 50.588C71.5133 51.212 72.8573 51.524 74.3453 51.524C75.5693 51.524 76.6973 51.308 77.7293 50.876C78.7853 50.42 79.6613 49.76 80.3573 48.896L81.4013 50.084C80.5853 51.068 79.5533 51.824 78.3053 52.352C77.0813 52.88 75.7493 53.144 74.3093 53.144C72.4373 53.144 70.7693 52.736 69.3053 51.92C67.8413 51.104 66.6893 49.976 65.8493 48.536C65.0333 47.096 64.6253 45.452 64.6253 43.604C64.6253 41.78 65.0093 40.148 65.7773 38.708C66.5693 37.244 67.6493 36.104 69.0173 35.288C70.3853 34.472 71.9213 34.064 73.6253 34.064C75.3293 34.064 76.8533 34.472 78.1973 35.288C79.5653 36.08 80.6333 37.196 81.4013 38.636C82.1933 40.076 82.5893 41.708 82.5893 43.532L82.5533 44.036ZM73.6253 35.648C72.3053 35.648 71.1173 35.948 70.0613 36.548C69.0053 37.124 68.1533 37.952 67.5053 39.032C66.8813 40.088 66.5213 41.288 66.4253 42.632H80.8253C80.7533 41.288 80.3933 40.088 79.7453 39.032C79.0973 37.976 78.2453 37.148 77.1893 36.548C76.1333 35.948 74.9453 35.648 73.6253 35.648ZM97.4818 51.812C97.0258 52.244 96.4498 52.58 95.7538 52.82C95.0818 53.036 94.3738 53.144 93.6298 53.144C91.9978 53.144 90.7378 52.7 89.8498 51.812C88.9618 50.9 88.5178 49.64 88.5178 48.032V35.756H85.0618V34.208H88.5178V30.104H90.3178V34.208H96.2938V35.756H90.3178V47.852C90.3178 49.076 90.6058 50.012 91.1818 50.66C91.7818 51.284 92.6578 51.596 93.8098 51.596C94.9858 51.596 95.9578 51.248 96.7258 50.552L97.4818 51.812ZM102.502 34.208H104.302V53H102.502V34.208ZM103.402 29.636C102.994 29.636 102.646 29.504 102.358 29.24C102.07 28.952 101.926 28.604 101.926 28.196C101.926 27.788 102.07 27.44 102.358 27.152C102.646 26.864 102.994 26.72 103.402 26.72C103.81 26.72 104.158 26.864 104.446 27.152C104.734 27.416 104.878 27.752 104.878 28.16C104.878 28.568 104.734 28.916 104.446 29.204C104.158 29.492 103.81 29.636 103.402 29.636ZM121.212 51.812C120.756 52.244 120.18 52.58 119.484 52.82C118.812 53.036 118.104 53.144 117.36 53.144C115.728 53.144 114.468 52.7 113.58 51.812C112.692 50.9 112.248 49.64 112.248 48.032V35.756H108.792V34.208H112.248V30.104H114.048V34.208H120.024V35.756H114.048V47.852C114.048 49.076 114.336 50.012 114.912 50.66C115.512 51.284 116.388 51.596 117.54 51.596C118.716 51.596 119.688 51.248 120.456 50.552L121.212 51.812Z" fill="black"/>
<path d="M212.27 26.288V53H210.506V48.572C209.762 50.036 208.718 51.164 207.374 51.956C206.03 52.748 204.506 53.144 202.802 53.144C201.05 53.144 199.466 52.736 198.05 51.92C196.634 51.104 195.518 49.976 194.702 48.536C193.91 47.096 193.514 45.452 193.514 43.604C193.514 41.756 193.91 40.112 194.702 38.672C195.518 37.208 196.634 36.08 198.05 35.288C199.466 34.472 201.05 34.064 202.802 34.064C204.482 34.064 205.982 34.46 207.302 35.252C208.646 36.044 209.702 37.148 210.47 38.564V26.288H212.27ZM202.91 51.524C204.35 51.524 205.634 51.188 206.762 50.516C207.914 49.844 208.814 48.908 209.462 47.708C210.134 46.508 210.47 45.14 210.47 43.604C210.47 42.068 210.134 40.7 209.462 39.5C208.814 38.3 207.914 37.364 206.762 36.692C205.634 36.02 204.35 35.684 202.91 35.684C201.47 35.684 200.174 36.02 199.022 36.692C197.894 37.364 196.994 38.3 196.322 39.5C195.674 40.7 195.35 42.068 195.35 43.604C195.35 45.14 195.674 46.508 196.322 47.708C196.994 48.908 197.894 49.844 199.022 50.516C200.174 51.188 201.47 51.524 202.91 51.524ZM219.643 26.144C220.075 26.144 220.435 26.3 220.723 26.612C221.011 26.9 221.155 27.248 221.155 27.656C221.155 27.896 221.119 28.148 221.047 28.412C220.999 28.676 220.927 28.976 220.831 29.312L219.427 34.208H218.131L219.319 29.132C218.959 29.036 218.671 28.868 218.455 28.628C218.239 28.364 218.131 28.04 218.131 27.656C218.131 27.224 218.275 26.864 218.563 26.576C218.851 26.288 219.211 26.144 219.643 26.144Z" fill="black"/>
<path d="M167.638 17C162.813 17.0004 158.364 19.6216 156 23.8565C153.636 19.6216 149.187 17.0004 144.362 17C136.983 17 131 23.8913 131 31.3208C131 49.9811 156 63 156 63C156 63 181 49.9811 181 31.3208C181 23.8913 175.017 17 167.638 17Z" fill="#FF6243"/>
<path d="M235.52 61C235.005 61 234.493 60.8431 234.057 60.5348C233.244 59.9593 232.864 58.97 233.085 58.0154L236.109 45.0042L225.855 36.2193C225.101 35.5765 224.813 34.5585 225.123 33.6271C225.432 32.6974 226.274 32.0392 227.271 31.9491L240.839 30.7458L246.203 18.4828C246.598 17.5819 247.499 17 248.5 17C249.501 17 250.401 17.5819 250.797 18.4807L256.161 30.7458L269.727 31.9491C270.726 32.0371 271.568 32.6974 271.877 33.6271C272.187 34.5568 271.9 35.5765 271.147 36.2193L260.892 45.0024L263.916 58.0133C264.138 58.97 263.758 59.9593 262.945 60.533C262.134 61.1068 261.053 61.151 260.199 60.6497L248.5 53.8199L236.8 60.6536C236.405 60.883 235.964 61 235.52 61V61ZM248.5 50.8777C248.944 50.8777 249.385 50.9943 249.781 51.2238L260.822 57.6749L257.968 45.3944C257.765 44.5204 258.068 43.6079 258.76 43.0166L268.442 34.7214L255.632 33.585C254.71 33.5027 253.917 32.9363 253.556 32.1061L248.5 20.5335L243.437 32.1078C243.081 32.9324 242.288 33.4989 241.367 33.5812L228.556 34.7176L238.238 43.0127C238.931 43.6058 239.235 44.5166 239.029 45.3927L236.178 57.6728L247.219 51.2238C247.614 50.9943 248.055 50.8777 248.5 50.8777V50.8777ZM240.735 30.983C240.735 30.983 240.735 30.9851 240.733 30.9868L240.735 30.983ZM256.261 30.9774L256.263 30.9812C256.263 30.9791 256.263 30.9791 256.261 30.9774Z" fill="black"/>
<path d="M134.355 31.3208C134.355 24.4469 139.34 18.0459 145.771 17.125C145.184 17.0415 144.593 16.9996 144 17C136.821 17 131 23.8913 131 31.3208C131 49.9811 155.323 63 155.323 63C155.323 63 155.952 62.6622 157 62.0244C151.505 58.6803 134.355 46.9921 134.355 31.3208Z" fill="#FF5023"/>
</svg>
