<svg width="300" height="300" viewBox="0 0 300 300" fill="none" xmlns="http://www.w3.org/2000/svg">
<rect width="300" height="300" fill="#C4C4C4"/>
<path d="M139.224 103.4V137H137.208L114.312 107.816V137H111.864V103.4H113.928L136.776 132.584V103.4H139.224ZM159.982 137.192C157.614 137.192 155.47 136.648 153.55 135.56C151.662 134.472 150.174 132.968 149.086 131.048C147.998 129.096 147.454 126.904 147.454 124.472C147.454 122.04 147.998 119.864 149.086 117.944C150.174 115.992 151.662 114.472 153.55 113.384C155.47 112.296 157.614 111.752 159.982 111.752C162.35 111.752 164.478 112.296 166.366 113.384C168.286 114.472 169.79 115.992 170.878 117.944C171.966 119.864 172.51 122.04 172.51 124.472C172.51 126.904 171.966 129.096 170.878 131.048C169.79 132.968 168.286 134.472 166.366 135.56C164.478 136.648 162.35 137.192 159.982 137.192ZM159.982 135.032C161.902 135.032 163.614 134.584 165.118 133.688C166.654 132.792 167.854 131.544 168.718 129.944C169.614 128.344 170.062 126.52 170.062 124.472C170.062 122.424 169.614 120.6 168.718 119C167.854 117.4 166.654 116.152 165.118 115.256C163.614 114.36 161.902 113.912 159.982 113.912C158.062 113.912 156.334 114.36 154.798 115.256C153.294 116.152 152.094 117.4 151.198 119C150.334 120.6 149.902 122.424 149.902 124.472C149.902 126.52 150.334 128.344 151.198 129.944C152.094 131.544 153.294 132.792 154.798 133.688C156.334 134.584 158.062 135.032 159.982 135.032ZM192.387 135.416C191.779 135.992 191.011 136.44 190.083 136.76C189.187 137.048 188.243 137.192 187.251 137.192C185.075 137.192 183.395 136.6 182.211 135.416C181.027 134.2 180.435 132.52 180.435 130.376V114.008H175.827V111.944H180.435V106.472H182.835V111.944H190.803V114.008H182.835V130.136C182.835 131.768 183.219 133.016 183.987 133.88C184.787 134.712 185.955 135.128 187.491 135.128C189.059 135.128 190.355 134.664 191.379 133.736L192.387 135.416ZM80.304 164.608V178.96H98.208V181.168H80.304V196H77.856V162.4H100.32V164.608H80.304ZM116.271 196.192C113.903 196.192 111.759 195.648 109.839 194.56C107.951 193.472 106.463 191.968 105.375 190.048C104.287 188.096 103.743 185.904 103.743 183.472C103.743 181.04 104.287 178.864 105.375 176.944C106.463 174.992 107.951 173.472 109.839 172.384C111.759 171.296 113.903 170.752 116.271 170.752C118.639 170.752 120.767 171.296 122.655 172.384C124.575 173.472 126.079 174.992 127.167 176.944C128.255 178.864 128.799 181.04 128.799 183.472C128.799 185.904 128.255 188.096 127.167 190.048C126.079 191.968 124.575 193.472 122.655 194.56C120.767 195.648 118.639 196.192 116.271 196.192ZM116.271 194.032C118.191 194.032 119.903 193.584 121.407 192.688C122.943 191.792 124.143 190.544 125.007 188.944C125.903 187.344 126.351 185.52 126.351 183.472C126.351 181.424 125.903 179.6 125.007 178C124.143 176.4 122.943 175.152 121.407 174.256C119.903 173.36 118.191 172.912 116.271 172.912C114.351 172.912 112.623 173.36 111.087 174.256C109.583 175.152 108.383 176.4 107.487 178C106.623 179.6 106.191 181.424 106.191 183.472C106.191 185.52 106.623 187.344 107.487 188.944C108.383 190.544 109.583 191.792 111.087 192.688C112.623 193.584 114.351 194.032 116.271 194.032ZM158.18 170.944V196H155.876V190.624C155.044 192.384 153.812 193.76 152.18 194.752C150.548 195.712 148.628 196.192 146.42 196.192C143.156 196.192 140.596 195.28 138.74 193.456C136.884 191.632 135.956 189.008 135.956 185.584V170.944H138.356V185.392C138.356 188.208 139.076 190.352 140.516 191.824C141.956 193.296 143.988 194.032 146.612 194.032C149.428 194.032 151.652 193.152 153.284 191.392C154.948 189.632 155.78 187.264 155.78 184.288V170.944H158.18ZM180.594 170.752C183.73 170.752 186.21 171.664 188.034 173.488C189.858 175.312 190.77 177.936 190.77 181.36V196H188.37V181.552C188.37 178.736 187.65 176.592 186.21 175.12C184.802 173.648 182.818 172.912 180.258 172.912C177.314 172.912 174.994 173.792 173.298 175.552C171.602 177.312 170.754 179.68 170.754 182.656V196H168.354V170.944H170.658V176.368C171.522 174.608 172.802 173.232 174.498 172.24C176.226 171.248 178.258 170.752 180.594 170.752ZM222.969 160.384V196H220.617V190.096C219.625 192.048 218.233 193.552 216.441 194.608C214.649 195.664 212.617 196.192 210.345 196.192C208.009 196.192 205.897 195.648 204.009 194.56C202.121 193.472 200.633 191.968 199.545 190.048C198.489 188.128 197.961 185.936 197.961 183.472C197.961 181.008 198.489 178.816 199.545 176.896C200.633 174.944 202.121 173.44 204.009 172.384C205.897 171.296 208.009 170.752 210.345 170.752C212.585 170.752 214.585 171.28 216.345 172.336C218.137 173.392 219.545 174.864 220.569 176.752V160.384H222.969ZM210.489 194.032C212.409 194.032 214.121 193.584 215.625 192.688C217.161 191.792 218.361 190.544 219.225 188.944C220.121 187.344 220.569 185.52 220.569 183.472C220.569 181.424 220.121 179.6 219.225 178C218.361 176.4 217.161 175.152 215.625 174.256C214.121 173.36 212.409 172.912 210.489 172.912C208.569 172.912 206.841 173.36 205.305 174.256C203.801 175.152 202.601 176.4 201.705 178C200.841 179.6 200.409 181.424 200.409 183.472C200.409 185.52 200.841 187.344 201.705 188.944C202.601 190.544 203.801 191.792 205.305 192.688C206.841 193.584 208.569 194.032 210.489 194.032Z" fill="black"/>
</svg>
